<?xml version="1.0" encoding="utf-8"?>
<!-- Svg Vector Icons : http://www.onlinewebfonts.com/icon -->
<!DOCTYPE svg PUBLIC "-//W3C//DTD SVG 1.1//EN" "http://www.w3.org/Graphics/SVG/1.1/DTD/svg11.dtd">
<svg version="1.1" xmlns="http://www.w3.org/2000/svg" xmlns:xlink="http://www.w3.org/1999/xlink" x="0px" y="0px" viewBox="0 0 1000 1000" enable-background="new 0 0 1000 1000" xml:space="preserve">
<metadata> Svg Vector Icons : http://www.onlinewebfonts.com/icon </metadata>
<g><g><g><path d="M649.1,979.7l194.5-113.3c9-5.3,15.6-13.9,18.3-24c2.7-10.1,1.2-20.9-4.1-29.9l-52.9-90.9c8.2-11.2,15.6-22.6,22.3-34.3c6.7-11.7,12.7-23.8,18.2-36.6l105.1-0.4c10.5,0,20.5-4.2,27.9-11.7c7.4-7.4,11.5-17.5,11.5-28l-0.8-225.1c0-10.5-4.2-20.5-11.7-27.9c-7.4-7.3-17.4-11.5-27.8-11.5c-0.1,0-0.1,0-0.2,0l-105.3,0.4c-11.1-24.9-24.8-48.4-41.1-70.4l52.3-91.4c10.8-18.9,4.3-43.1-14.7-53.9L645.5,19.2c-9.1-5.2-19.9-6.6-30-3.8c-10.1,2.8-18.7,9.4-23.9,18.5l-52.3,91.4c-27.1-2.9-54.5-2.8-81.5,0.2l-53-91c-5.3-9.1-13.9-15.6-24-18.3c-10.1-2.7-20.9-1.2-30,4.1L156.4,133.6c-18.8,11-25.2,35.1-14.2,54l52.9,90.9c-8.2,11.2-15.6,22.5-22.3,34.2c-6.7,11.7-12.8,23.8-18.2,36.6l-105.2,0.4c-21.8,0.1-39.4,17.8-39.3,39.6l0.8,225.1c0,10.5,4.2,20.5,11.7,27.9c7.4,7.3,17.4,11.5,27.8,11.5c0,0,0.1,0,0.1,0l105.3-0.4c11.1,24.9,24.8,48.4,41.1,70.4l-52.3,91.4c-5.2,9.1-6.6,19.9-3.8,30c2.7,10.1,9.4,18.7,18.5,23.9l195.3,111.8c6.2,3.5,12.9,5.2,19.6,5.2c13.7,0,27-7.1,34.3-19.9l52.3-91.4c27.2,2.9,54.5,2.8,81.5-0.2l53,91c5.3,9,13.9,15.6,24,18.3C629.3,986.5,640.1,985,649.1,979.7z M596.9,811.6c-8.4-14.5-25.1-22-41.5-18.9c-35.4,6.8-72.6,6.9-108.6,0.3c-16.5-3-33,4.7-41.3,19.2l-46,80.4l-126.8-72.6l46-80.4c8.3-14.5,6.6-32.7-4.3-45.4c-24-27.9-42.5-59.5-54.7-93.9c-5.6-15.7-20.5-26.2-37.2-26.2c0,0-0.1,0-0.1,0l-92.6,0.3l-0.5-146.1l92.6-0.4c16.7-0.1,31.6-10.7,37.1-26.5c6.3-18.2,13.7-34.4,22.5-49.8c8.8-15.3,19.1-29.9,31.5-44.6c10.8-12.8,12.4-31,4-45.4l-46.6-80l126.3-73.6l46.6,80c8.4,14.5,25,22.1,41.5,18.9c35.6-6.7,72.8-6.8,108.7-0.3c16.4,3,33-4.7,41.3-19.2l46-80.4l126.8,72.6l-46,80.4c-8.3,14.5-6.6,32.7,4.3,45.4c24,27.9,42.4,59.5,54.8,93.9c5.6,15.7,20.5,26.2,37.2,26.2c0.1,0,0.1,0,0.2,0l92.5-0.4l0.5,146.1l-92.5,0.3c-16.7,0.1-31.6,10.6-37.1,26.4c-6.4,18.3-13.8,34.6-22.5,49.8c-8.7,15.2-19,29.8-31.6,44.7c-10.8,12.8-12.4,30.9-4,45.4l46.6,80l-126.3,73.5L596.9,811.6z"/><path d="M685.3,606.1c28.3-49.5,35.7-107.1,20.7-162.1c-15-55-50.5-101-100-129.3c-32.3-18.5-68.9-28.2-105.9-28.2c-76.5,0-147.5,41.2-185.5,107.5c-58.5,102.2-22.9,232.9,79.3,291.4c32.3,18.5,68.9,28.2,105.9,28.2C576.3,713.6,647.4,672.4,685.3,606.1z M616.8,566.8c-23.9,41.8-68.7,67.8-117,67.8c-23.3,0-46.3-6.2-66.7-17.8c-64.4-36.9-86.8-119.2-50-183.7c23.9-41.8,68.7-67.8,117-67.8c23.3,0,46.3,6.2,66.7,17.8c31.2,17.9,53.6,46.8,63,81.5C639.3,499.4,634.7,535.6,616.8,566.8z"/></g></g><g></g><g></g><g></g><g></g><g></g><g></g><g></g><g></g><g></g><g></g><g></g><g></g><g></g><g></g><g></g></g>
</svg>